<svg width="55" height="54" viewBox="0 0 55 54" fill="none" xmlns="http://www.w3.org/2000/svg">
<path d="M27.0541 32.8376C23.5515 32.8376 20.0567 33.7423 16.9253 35.567L5.25773 42.3325L8.56701 47.3969L21.9433 37.6624L24.317 34.5773H24.6959L24.2242 53.2113H29.8995L29.4278 34.5773H29.8067L32.1804 37.6624L45.5567 47.3969L48.866 42.3325L37.1985 35.567C34.0593 33.7577 30.5644 32.8376 27.0619 32.8376H27.0541Z" fill="#7B7669"/>
<path d="M39.0155 25.7474L35.1727 25.2294L34.9794 24.8969L51.2938 15.982L48.4562 11.049L32.6134 20.7835L32.4201 20.451L33.8969 16.8479L35.5979 0.347938L29.5902 0V13.5309C29.5902 17.1649 30.5567 20.6598 32.3119 23.7062C34.0593 26.7526 36.6031 29.3351 39.7268 31.1521L51.3943 37.9175L54.1005 32.5129L39.0155 25.7474Z" fill="#7B7669"/>
<path d="M21.8041 23.7062C23.5515 20.6598 24.5258 17.1649 24.5258 13.5309V7.15256e-07L18.5103 0.347939L20.2113 16.8479L21.6804 20.451L21.4871 20.7835L5.65206 11.049L2.81443 15.982L19.1289 24.8969L18.9356 25.2294L15.0851 25.7474L0 32.5129L2.70619 37.9175L14.3737 31.1521C17.5129 29.3428 20.049 26.7526 21.7887 23.7062H21.8119H21.8041Z" fill="#7B7669"/>
</svg>
